<?xml version="1.0" encoding="utf-8"?>
<!-- Generator: Adobe Illustrator 24.0.3, SVG Export Plug-In . SVG Version: 6.00 Build 0)  -->
<svg version="1.1" xmlns="http://www.w3.org/2000/svg" xmlns:xlink="http://www.w3.org/1999/xlink" x="0px" y="0px"
	 viewBox="0 0 1920 1080" style="enable-background:new 0 0 1920 1080;" xml:space="preserve">
<style type="text/css">
	.st0{stroke:#000000;stroke-miterlimit:10;}
</style>
<g id="lupa_1">
	<path d="M1240,245c-103.28,0-187,83.72-187,187s83.72,187,187,187s187-83.72,187-187S1343.28,245,1240,245z M1239.5,588
		c-86.43,0-156.5-70.07-156.5-156.5S1153.07,275,1239.5,275S1396,345.07,1396,431.5S1325.93,588,1239.5,588z"/>
</g>
<g id="lupa_2">
	<path class="st0" d="M1078.27,520.52L764.56,777.46c-3.43,2.81-5.57,6.95-5.85,11.43c-1.16,18.31,1.58,64.9,59.14,67.51
		c4.21,0.19,8.32-1.42,11.38-4.39l290.87-281.86c6.07-5.88,6.57-15.59,1.14-22.09l-21.23-25.43
		C1094.51,516.04,1084.89,515.11,1078.27,520.52z"/>
</g>
<g id="alas">
</g>
<g id="plumas">
	<path d="M1048.38,521.31L935.81,275.17c-0.18-0.39-0.28-0.81-0.48-1.18c-7.83-14.49-22.83-45.49-81.96-35.48
		c-0.56,0.1-1.15,0.01-1.72,0.07l-336.9,32.09c-11.48,1.09-17.46,14.2-10.78,23.59c9.07,12.75,27.79,26.01,66.38,24.07
		c2.11-0.11,4.19,0.24,6.1,0.98l257.76-25.28c2.91-0.29,5.49,1.87,5.73,4.78l0.13,1.54c0.24,2.86-1.87,5.38-4.73,5.65L586.23,329.5
		c7.62,11.53,24.6,27.62,60.78,30.55c2.02,0.16,3.94,0.74,5.68,1.66l201.49-24.24c2.56-0.31,4.88,1.53,5.16,4.09l0.15,1.35
		c0.24,2.21-1.34,4.2-3.54,4.47l-195.47,23.53c6.05,10.4,21.02,24.62,57.52,23.09c3.26-0.14,6.42,0.85,9.05,2.68
		c0.09-0.02,0.17-0.05,0.26-0.06L867,377c1.48-0.21,3.89,1.1,4.06,2.96l0.2,2.25c0.16,1.9-1.75,3.58-3.25,3.78l-132.76,18.57
		c11.24,9.98,32.75,22.21,67.26,15.93c47.91-8.71,97.52,4.52,112,19c3,3,2.66,2.53,4,4l94.02,102.17
		c5.12,5.61,13.62,6.49,19.79,2.06l11.19-8.04C1049.31,535.51,1051.35,527.81,1048.38,521.31z"/>
</g>
<g id="Capa_6">
	<path d="M1134.46,388h212.01c3.31,0,4.69-4.24,2.01-6.19l-106.46-77.34c-1.2-0.87-2.83-0.87-4.03,0.01l-105.55,77.34
		C1129.77,383.77,1131.15,388,1134.46,388z"/>
	<path d="M1129,500h223c2.76,0,5,2.24,5,5l0,0c0,2.76-2.24,5-5,5h-223c-2.76,0-5-2.24-5-5l0,0C1124,502.24,1126.24,500,1129,500z"/>
	<path d="M1149.5,521h178c3.04,0,5.5,2.46,5.5,5.5l0,0c0,3.04-2.46,5.5-5.5,5.5h-178c-3.04,0-5.5-2.46-5.5-5.5l0,0
		C1144,523.46,1146.46,521,1149.5,521z"/>
	<path d="M1144,398.76v91.47c0,2.08,1.46,3.76,3.25,3.76h31.5c1.79,0,3.25-1.68,3.25-3.76v-91.47c0-2.08-1.46-3.76-3.25-3.76h-31.5
		C1145.46,395,1144,396.68,1144,398.76z"/>
	<path d="M1197,398.76v91.47c0,2.08,1.46,3.76,3.25,3.76h31.5c1.79,0,3.25-1.68,3.25-3.76v-91.47c0-2.08-1.46-3.76-3.25-3.76h-31.5
		C1198.46,395,1197,396.68,1197,398.76z"/>
	<path d="M1249,398.76v91.47c0,2.08,1.46,3.76,3.25,3.76h31.5c1.79,0,3.25-1.68,3.25-3.76v-91.47c0-2.08-1.46-3.76-3.25-3.76h-31.5
		C1250.46,395,1249,396.68,1249,398.76z"/>
	<path d="M1302,398.76v91.47c0,2.08,1.46,3.76,3.25,3.76h31.5c1.79,0,3.25-1.68,3.25-3.76v-91.47c0-2.08-1.46-3.76-3.25-3.76h-31.5
		C1303.46,395,1302,396.68,1302,398.76z"/>
</g>
</svg>
